<svg id="Layer_1" data-name="Layer 1" xmlns="http://www.w3.org/2000/svg" viewBox="0 0 231.39 210.98"><defs><style>.cls-1{fill:#6cc900;}.cls-2{fill:#508e00;}</style></defs><title>RuedaMove</title><path class="cls-1" d="M166,18.36,162.19,25C152.69,41.4,135,51,116,50.94h-.3a54.51,54.51,0,0,0-54.55,54.55h0c-28.24,0-45.14-31.35-29.69-55a100.41,100.41,0,0,1,84.24-45.6A100.13,100.13,0,0,1,166,18.36Z"/><path class="cls-2" d="M144.72,155.77c12.78,22.14-2.91,50.17-28.48,50.31h-.55A100.49,100.49,0,0,1,15.11,105.49h1.55c21.69,0,41.44,11.47,53.24,29.67a54.89,54.89,0,0,0,18.52,17.59,54.6,54.6,0,0,0,54.55,0Z"/><path class="cls-1" d="M216.28,105.49A100.6,100.6,0,0,1,166,192.63h0a65.15,65.15,0,0,1-1.73-62.28A54.6,54.6,0,0,0,143,58.23h0c14-24.21,49.38-23.61,62.19,1.24A100.17,100.17,0,0,1,216.28,105.49Z"/></svg>